# xmcd CD database file
#
# Track frame offsets:
#	150
#	27542
#	50326
#	84329
#	109255
#	126662
#	152835
#
# Disc length: 2408 seconds
#
# Revision: 0
# Processed by: cddbd v1.5.2PL0 Copyright (c) Steve Scherf et al.
# Submitted via: CDex 1.70beta2
#
DISCID=5b096607
DTITLE=Eero Koivistoinen Quartet - Illusion
DYEAR=2015
DGENRE=Jazz
TTITLE0=Illusion
TTITLE1=Big Five
TTITLE2=Catalonia
TTITLE3=Straight Up
TTITLE4=Blue In Green
TTITLE5=Hallanvaara
TTITLE6=Goodbye
EXTD=YEAR: 2015
EXTT0=
EXTT1=
EXTT2=
EXTT3=
EXTT4=
EXTT5=
EXTT6=
PLAYORDER=
